<svg width="98" height="98" viewBox="0 0 98 98" fill="none" xmlns="http://www.w3.org/2000/svg">
<g filter="url(#filter0_d)">
<path fill-rule="evenodd" clip-rule="evenodd" d="M49 87C71.0914 87 89 69.0914 89 47C89 24.9086 71.0914 7 49 7C26.9086 7 9 24.9086 9 47C9 69.0914 26.9086 87 49 87Z" fill="#FFFEED"/>
<path fill-rule="evenodd" clip-rule="evenodd" d="M49 87C71.0914 87 89 69.0914 89 47C89 24.9086 71.0914 7 49 7C26.9086 7 9 24.9086 9 47C9 69.0914 26.9086 87 49 87Z" stroke="#F8E71C"/>
</g>
<path d="M34.1597 52V42.13H35.6017V50.796H40.3897V52H34.1597ZM44.5886 52.098C43.9166 52.098 43.324 51.9533 42.8106 51.664C42.3066 51.3747 41.9146 50.964 41.6346 50.432C41.364 49.8907 41.2286 49.2653 41.2286 48.556C41.2286 47.8373 41.364 47.212 41.6346 46.68C41.9146 46.1387 42.3066 45.7233 42.8106 45.434C43.324 45.1447 43.9166 45 44.5886 45C45.2606 45 45.8486 45.1447 46.3526 45.434C46.866 45.7233 47.258 46.1387 47.5286 46.68C47.8086 47.212 47.9486 47.8373 47.9486 48.556C47.9486 49.2653 47.8086 49.8907 47.5286 50.432C47.258 50.964 46.866 51.3747 46.3526 51.664C45.8486 51.9533 45.2606 52.098 44.5886 52.098ZM44.5886 50.978C45.214 50.978 45.69 50.7727 46.0166 50.362C46.3526 49.9513 46.5206 49.3493 46.5206 48.556C46.5206 47.772 46.3526 47.1747 46.0166 46.764C45.6806 46.344 45.2046 46.134 44.5886 46.134C43.9726 46.134 43.4966 46.344 43.1606 46.764C42.8246 47.1747 42.6566 47.772 42.6566 48.556C42.6566 49.3493 42.82 49.9513 43.1466 50.362C43.4826 50.7727 43.9633 50.978 44.5886 50.978ZM49.728 48.836V47.702H53.774V48.836H49.728ZM55.898 52V42.13H62.17V43.306H57.326V46.4H61.89V47.576H57.326V52H55.898ZM63.5777 52V45.168H64.9917V52H63.5777ZM63.4797 42.116H65.1037V43.586H63.4797V42.116Z" fill="#333333"/>
<defs>
<filter id="filter0_d" x="0.5" y="0.5" width="97" height="97" filterUnits="userSpaceOnUse" color-interpolation-filters="sRGB">
<feFlood flood-opacity="0" result="BackgroundImageFix"/>
<feColorMatrix in="SourceAlpha" type="matrix" values="0 0 0 0 0 0 0 0 0 0 0 0 0 0 0 0 0 0 127 0"/>
<feOffset dy="2"/>
<feGaussianBlur stdDeviation="4"/>
<feColorMatrix type="matrix" values="0 0 0 0 0.701961 0 0 0 0 0.701961 0 0 0 0 0.701961 0 0 0 0.5 0"/>
<feBlend mode="normal" in2="BackgroundImageFix" result="effect1_dropShadow"/>
<feBlend mode="normal" in="SourceGraphic" in2="effect1_dropShadow" result="shape"/>
</filter>
</defs>
</svg>
