<svg width="98" height="98" viewBox="0 0 98 98" fill="none" xmlns="http://www.w3.org/2000/svg">
<g filter="url(#filter0_d)">
<path fill-rule="evenodd" clip-rule="evenodd" d="M49 87C71.0914 87 89 69.0914 89 47C89 24.9086 71.0914 7 49 7C26.9086 7 9 24.9086 9 47C9 69.0914 26.9086 87 49 87Z" fill="#F5FFFD"/>
<path fill-rule="evenodd" clip-rule="evenodd" d="M49 87C71.0914 87 89 69.0914 89 47C89 24.9086 71.0914 7 49 7C26.9086 7 9 24.9086 9 47C9 69.0914 26.9086 87 49 87Z" stroke="#69E2CD"/>
</g>
<path d="M29.3777 52H27.7817L26.1017 48.836C25.915 48.5 25.691 48.2667 25.4297 48.136C25.1777 47.996 24.8417 47.926 24.4217 47.926H22.7977V52H21.3697V42.13H25.5697C26.6617 42.13 27.4923 42.3727 28.0617 42.858C28.6403 43.3433 28.9297 44.0527 28.9297 44.986C28.9297 45.742 28.715 46.3627 28.2857 46.848C27.8657 47.3333 27.2637 47.6413 26.4797 47.772C26.965 47.9213 27.3663 48.2853 27.6837 48.864L29.3777 52ZM25.4017 46.764C26.1297 46.764 26.6663 46.624 27.0117 46.344C27.3663 46.0547 27.5437 45.6113 27.5437 45.014C27.5437 44.4167 27.371 43.9827 27.0257 43.712C26.6803 43.432 26.139 43.292 25.4017 43.292H22.7837V46.764H25.4017ZM36.7197 48.822H31.8897C31.9924 50.2687 32.711 50.992 34.0457 50.992C34.8297 50.992 35.539 50.7353 36.1737 50.222L36.6077 51.216C36.2904 51.4867 35.8984 51.7013 35.4317 51.86C34.965 52.0187 34.489 52.098 34.0037 52.098C32.9117 52.098 32.0484 51.7853 31.4137 51.16C30.7884 50.5347 30.4757 49.6713 30.4757 48.57C30.4757 47.87 30.611 47.2493 30.8817 46.708C31.1617 46.1667 31.549 45.7467 32.0437 45.448C32.5477 45.1493 33.117 45 33.7517 45C34.6757 45 35.399 45.2987 35.9217 45.896C36.4537 46.4933 36.7197 47.3193 36.7197 48.374V48.822ZM33.7797 46.036C33.2384 46.036 32.8044 46.2087 32.4777 46.554C32.1604 46.89 31.969 47.3753 31.9037 48.01H35.5017C35.4737 47.3753 35.3104 46.89 35.0117 46.554C34.7224 46.2087 34.3117 46.036 33.7797 46.036ZM40.6859 52.098C39.5005 52.098 38.5532 51.8087 37.8439 51.23L38.2779 50.208C38.9779 50.7493 39.7945 51.02 40.7279 51.02C41.1852 51.02 41.5352 50.9453 41.7779 50.796C42.0205 50.6373 42.1419 50.418 42.1419 50.138C42.1419 49.8953 42.0579 49.704 41.8899 49.564C41.7312 49.424 41.4512 49.3073 41.0499 49.214L39.9159 48.962C39.3092 48.822 38.8519 48.5933 38.5439 48.276C38.2359 47.9587 38.0819 47.5573 38.0819 47.072C38.0819 46.456 38.3292 45.9567 38.8239 45.574C39.3279 45.1913 39.9859 45 40.7979 45C41.2832 45 41.7452 45.0793 42.1839 45.238C42.6225 45.3873 43.0005 45.602 43.3179 45.882L42.8839 46.876C42.2119 46.344 41.5165 46.078 40.7979 46.078C40.3685 46.078 40.0279 46.162 39.7759 46.33C39.5332 46.498 39.4119 46.7267 39.4119 47.016C39.4119 47.2493 39.4865 47.4407 39.6359 47.59C39.7945 47.73 40.0419 47.8373 40.3779 47.912L41.5399 48.178C42.2025 48.3273 42.6879 48.5607 42.9959 48.878C43.3039 49.186 43.4579 49.592 43.4579 50.096C43.4579 50.712 43.2059 51.202 42.7019 51.566C42.2072 51.9207 41.5352 52.098 40.6859 52.098ZM50.8838 48.822H46.0538C46.1564 50.2687 46.8751 50.992 48.2098 50.992C48.9938 50.992 49.7031 50.7353 50.3378 50.222L50.7718 51.216C50.4544 51.4867 50.0624 51.7013 49.5958 51.86C49.1291 52.0187 48.6531 52.098 48.1678 52.098C47.0758 52.098 46.2124 51.7853 45.5778 51.16C44.9524 50.5347 44.6398 49.6713 44.6398 48.57C44.6398 47.87 44.7751 47.2493 45.0458 46.708C45.3258 46.1667 45.7131 45.7467 46.2078 45.448C46.7118 45.1493 47.2811 45 47.9158 45C48.8398 45 49.5631 45.2987 50.0858 45.896C50.6178 46.4933 50.8838 47.3193 50.8838 48.374V48.822ZM47.9438 46.036C47.4024 46.036 46.9684 46.2087 46.6418 46.554C46.3244 46.89 46.1331 47.3753 46.0678 48.01H49.6658C49.6378 47.3753 49.4744 46.89 49.1758 46.554C48.8864 46.2087 48.4758 46.036 47.9438 46.036ZM55.2979 45C56.2126 45 56.8892 45.2287 57.3279 45.686C57.7759 46.1433 57.9999 46.8387 57.9999 47.772V52H56.6419V50.866C56.4646 51.2673 56.1986 51.5753 55.8439 51.79C55.4986 51.9953 55.0926 52.098 54.6259 52.098C54.1779 52.098 53.7672 52.0093 53.3939 51.832C53.0206 51.6453 52.7266 51.3887 52.5119 51.062C52.3066 50.7353 52.2039 50.3713 52.2039 49.97C52.2039 49.4753 52.3299 49.088 52.5819 48.808C52.8432 48.5187 53.2679 48.3133 53.8559 48.192C54.4532 48.0707 55.2699 48.01 56.3059 48.01H56.6279V47.604C56.6279 47.0813 56.5159 46.7033 56.2919 46.47C56.0772 46.2367 55.7226 46.12 55.2279 46.12C54.4532 46.12 53.6786 46.358 52.9039 46.834L52.4839 45.84C52.8479 45.588 53.2866 45.3873 53.7999 45.238C54.3226 45.0793 54.8219 45 55.2979 45ZM54.8779 51.048C55.3912 51.048 55.8112 50.8753 56.1379 50.53C56.4646 50.1753 56.6279 49.7227 56.6279 49.172V48.808H56.3759C55.6479 48.808 55.0879 48.8407 54.6959 48.906C54.3039 48.9713 54.0239 49.0833 53.8559 49.242C53.6879 49.3913 53.6039 49.6107 53.6039 49.9C53.6039 50.2267 53.7206 50.502 53.9539 50.726C54.1966 50.9407 54.5046 51.048 54.8779 51.048ZM64.0921 46.19L63.2381 46.274C62.5661 46.3393 62.0808 46.5447 61.7821 46.89C61.4928 47.2353 61.3481 47.674 61.3481 48.206V52H59.9341V45.168H61.3061V46.358C61.6701 45.5553 62.4121 45.112 63.5321 45.028L63.9941 45L64.0921 46.19ZM67.9203 52.098C67.2297 52.098 66.6277 51.9533 66.1143 51.664C65.6103 51.3747 65.2183 50.9687 64.9383 50.446C64.6677 49.914 64.5323 49.2933 64.5323 48.584C64.5323 47.8747 64.6723 47.2493 64.9523 46.708C65.2417 46.1667 65.643 45.7467 66.1563 45.448C66.679 45.1493 67.2857 45 67.9763 45C68.4523 45 68.9097 45.0793 69.3483 45.238C69.7963 45.3967 70.1603 45.6113 70.4403 45.882L70.0063 46.89C69.3903 46.386 68.751 46.134 68.0883 46.134C67.435 46.134 66.9217 46.3487 66.5483 46.778C66.1843 47.198 66.0023 47.7953 66.0023 48.57C66.0023 49.3353 66.1843 49.928 66.5483 50.348C66.9123 50.7587 67.4257 50.964 68.0883 50.964C68.751 50.964 69.3903 50.712 70.0063 50.208L70.4403 51.23C70.1417 51.5007 69.7683 51.7153 69.3203 51.874C68.8723 52.0233 68.4057 52.098 67.9203 52.098ZM75.3739 45C77.0072 45 77.8239 45.9193 77.8239 47.758V52H76.4099V47.828C76.4099 47.2493 76.2932 46.8247 76.0599 46.554C75.8359 46.2833 75.4812 46.148 74.9959 46.148C74.4266 46.148 73.9692 46.3253 73.6239 46.68C73.2786 47.0347 73.1059 47.5107 73.1059 48.108V52H71.6919V42.13H73.1059V46.204C73.3392 45.812 73.6519 45.5133 74.0439 45.308C74.4359 45.1027 74.8792 45 75.3739 45Z" fill="#333333"/>
<defs>
<filter id="filter0_d" x="0.5" y="0.5" width="97" height="97" filterUnits="userSpaceOnUse" color-interpolation-filters="sRGB">
<feFlood flood-opacity="0" result="BackgroundImageFix"/>
<feColorMatrix in="SourceAlpha" type="matrix" values="0 0 0 0 0 0 0 0 0 0 0 0 0 0 0 0 0 0 127 0"/>
<feOffset dy="2"/>
<feGaussianBlur stdDeviation="4"/>
<feColorMatrix type="matrix" values="0 0 0 0 0.701961 0 0 0 0 0.701961 0 0 0 0 0.701961 0 0 0 0.5 0"/>
<feBlend mode="normal" in2="BackgroundImageFix" result="effect1_dropShadow"/>
<feBlend mode="normal" in="SourceGraphic" in2="effect1_dropShadow" result="shape"/>
</filter>
</defs>
</svg>
